# xmcd
#
# Track frame offsets: 
#        150
#        14482
#        33777
#        43692
#        58570
#        73245
#        86710
#        102875
#        116125
#        128807
#        144965
#        154840
#        174785
#        199865
#        214972
#        243497
#        273082
#        283935
#        297305
#        310982
#        322337
#        334370
#
# Disc length: 4611 seconds
#
# Revision: 2
# Processed by: cddbd v1.5.2PL0 Copyright (c) Steve Scherf et al.
# Submitted via: ExactAudioCopyFreeDBPlugin 1.0
#
DISCID=57120116
DTITLE=Ray Charles - Ray Charles:  Genius and Soul - The 50th Anniversar
DTITLE=y Collection [Rhino box set]
DYEAR=1997
DGENRE=Rhythm and Blue
TTITLE0=Hide 'Nor Hair
TTITLE1=I Can't Stop Loving You
TTITLE2=Bye Bye, Love
TTITLE3=Born to Lose
TTITLE4=You Don't Know Me
TTITLE5=You Are My Sunshine
TTITLE6=Your Cheating Heart
TTITLE7=Take These Chains from My Heart
TTITLE8=The Brightest Smile in Town
TTITLE9=Without Love (There is Nothing)
TTITLE10=Busted
TTITLE11=That Lucky Old Sun
TTITLE12=Ol' Man River
TTITLE13=Smack Dab in the Middle
TTITLE14=Makin' Whoopee
TTITLE15=Without a Song, Parts 1 and 2
TTITLE16=The Cincinnati Kid
TTITLE17=Crying Time
TTITLE18=Let's Go Get Stoned
TTITLE19=I Chose to Sing the Blues
TTITLE20=Together Again
TTITLE21=I Don't Need No Doctor
EXTD=
EXTT0=
EXTT1=
EXTT2=
EXTT3=
EXTT4=
EXTT5=
EXTT6=
EXTT7=
EXTT8=
EXTT9=
EXTT10=
EXTT11=
EXTT12=
EXTT13=
EXTT14=
EXTT15=
EXTT16=
EXTT17=
EXTT18=
EXTT19=
EXTT20=
EXTT21=
PLAYORDER=
